<svg width="65" height="65" viewBox="0 0 65 65" fill="none" xmlns="http://www.w3.org/2000/svg">
<path d="M5 12C5 8.13401 8.13401 5 12 5H53C56.866 5 60 8.13401 60 12V53C60 56.866 56.866 60 53 60H12C8.13401 60 5 56.866 5 53V12Z" fill="#B20237"/>
<path fill-rule="evenodd" clip-rule="evenodd" d="M0 11C0 4.92487 4.92487 0 11 0H54C60.0751 0 65 4.92487 65 11V54C65 60.0751 60.0751 65 54 65H11C4.92487 65 0 60.0751 0 54V11ZM11 2C6.02944 2 2 6.02944 2 11V54C2 58.9706 6.02944 63 11 63H54C58.9706 63 63 58.9706 63 54V11C63 6.02944 58.9706 2 54 2H11Z" fill="#B20237"/>
<path d="M15 47.9808C15 48.2168 15.0819 48.4433 15.2323 48.6538C15.7929 49.4381 17.3054 50 19.0833 50C20.8612 50 22.3737 49.4381 22.9342 48.6538C23.0847 48.4433 23.1665 48.2168 23.1665 47.9808V47.3077V45.2885C23.1665 45.8056 22.7734 46.2774 22.1268 46.6346C21.3791 47.0477 20.2926 47.3077 19.0833 47.3077C17.8739 47.3077 16.7874 47.0477 16.0397 46.6346C15.3932 46.2774 15 45.8056 15 45.2885V47.9808Z" fill="white"/>
<path d="M36.0969 35.2036V31.1539C38.8191 31.1539 40.8607 30.8174 40.8607 33.1731C40.8607 35.2027 39.3453 35.2339 36.0969 35.2036Z" fill="white"/>
<path d="M36.4372 22.4038H36.7586H37.458H38.7815C40.0091 22.4038 41.0848 21.5913 41.4078 20.4199L42.6502 15.9146C42.7345 15.6089 42.3695 15.3474 42.0908 15.5037C41.3857 15.8989 40.3474 16.3778 39.4996 16.3462C38.1918 16.2973 37.7459 15 36.4372 15C35.1284 15 34.6826 16.2973 33.3747 16.3462C32.527 16.3778 31.4886 15.8989 30.7835 15.5037C30.5048 15.3474 30.1399 15.6089 30.2242 15.9146L31.4666 20.4199C31.7896 21.5913 32.8653 22.4038 34.0928 22.4038H35.4164H36.4372Z" fill="white"/>
<path fill-rule="evenodd" clip-rule="evenodd" d="M36.7586 22.4038H36.4372C36.0756 22.4038 35.7173 22.4181 35.3628 22.4462C33.1446 22.6218 31.0748 23.3364 29.2915 24.4607V37.4817C30.5119 37.8308 31.3331 38.4834 31.3331 39.2308V46.6346H43.1943C47.1012 46.6346 50.206 43.3886 49.9893 39.5305L49.7078 34.5192C49.3395 27.962 44.0365 22.7812 37.4829 22.4236C37.2431 22.4105 37.0016 22.4038 36.7586 22.4038ZM36.0969 35.2036V31.1539C38.8191 31.1539 40.8607 30.8174 40.8607 33.1731C40.8607 35.2027 39.3453 35.2339 36.0969 35.2036Z" fill="white"/>
<path d="M21.1249 25.7692C23.38 25.7692 25.2082 26.6733 25.2082 27.7885V37.4817C25.8088 37.3099 26.5061 37.2115 27.2498 37.2115C27.9936 37.2115 28.6909 37.3099 29.2915 37.4817V24.4607V19.0385C29.2915 20.1537 27.4633 21.0577 25.2082 21.0577C22.9531 21.0577 21.1249 20.1537 21.1249 19.0385V25.7692Z" fill="white"/>
<path d="M17.0416 27.7885V43.2692H19.0833C19.827 43.2692 20.5243 43.3676 21.1249 43.5394C22.3454 43.8885 23.1665 44.5411 23.1665 45.2885V43.2692V39.2308C23.1665 38.4834 23.9877 37.8308 25.2082 37.4817V27.7885C25.2082 28.9037 23.38 29.8077 21.1249 29.8077C18.8698 29.8077 17.0416 28.9037 17.0416 27.7885Z" fill="white"/>
<path d="M21.1249 29.8077C23.38 29.8077 25.2082 28.9037 25.2082 27.7885C25.2082 26.6733 23.38 25.7692 21.1249 25.7692C18.8698 25.7692 17.0416 26.6733 17.0416 27.7885C17.0416 28.9037 18.8698 29.8077 21.1249 29.8077Z" fill="white"/>
<path d="M25.2082 21.0577C27.4633 21.0577 29.2915 20.1537 29.2915 19.0385C29.2915 17.9233 27.4633 17.0192 25.2082 17.0192C22.9531 17.0192 21.1249 17.9233 21.1249 19.0385C21.1249 20.1537 22.9531 21.0577 25.2082 21.0577Z" fill="white"/>
<path d="M23.1665 45.2885V47.3077C23.1665 48.0512 24.9947 48.6538 27.2498 48.6538C29.5049 48.6538 31.3331 48.0512 31.3331 47.3077V46.6346V39.2308C31.3331 39.9782 30.5119 40.6307 29.2915 40.9799C28.6909 41.1517 27.9936 41.25 27.2498 41.25C26.5061 41.25 25.8088 41.1517 25.2082 40.9799C23.9877 40.6307 23.1665 39.9782 23.1665 39.2308V43.2692V45.2885Z" fill="white"/>
<path d="M25.2082 37.4817C23.9877 37.8308 23.1665 38.4834 23.1665 39.2308C23.1665 39.9782 23.9877 40.6307 25.2082 40.9799C25.8088 41.1517 26.5061 41.25 27.2498 41.25C27.9936 41.25 28.6909 41.1517 29.2915 40.9799C30.5119 40.6307 31.3331 39.9782 31.3331 39.2308C31.3331 38.4834 30.5119 37.8308 29.2915 37.4817C28.6909 37.3099 27.9936 37.2115 27.2498 37.2115C26.5061 37.2115 25.8088 37.3099 25.2082 37.4817Z" fill="white"/>
<path d="M19.0833 43.2692C16.8281 43.2692 15 44.1733 15 45.2885C15 45.8056 15.3932 46.2774 16.0397 46.6346C16.7874 47.0477 17.8739 47.3077 19.0833 47.3077C20.2926 47.3077 21.3791 47.0477 22.1268 46.6346C22.7734 46.2774 23.1665 45.8056 23.1665 45.2885C23.1665 44.5411 22.3454 43.8885 21.1249 43.5394C20.5243 43.3676 19.827 43.2692 19.0833 43.2692Z" fill="white"/>
<path fill-rule="evenodd" clip-rule="evenodd" d="M35.1644 16.0859C34.7446 16.4029 34.1977 16.8158 33.3934 16.8458C32.8773 16.8651 32.3361 16.7301 31.8546 16.5548C31.4715 16.4154 31.1046 16.2422 30.787 16.0747L31.9486 20.287C32.2109 21.2383 33.0869 21.9038 34.0928 21.9038H34.8577C34.6724 21.6179 34.4481 21.2562 34.2908 20.9491C34.1159 20.6076 33.9378 20.1654 33.8068 19.8205C33.7404 19.6456 33.6845 19.491 33.645 19.3801C33.6253 19.3245 33.6096 19.2798 33.5989 19.2487L33.5864 19.2127L33.5831 19.2031L33.5822 19.2004L33.5819 19.1994C33.4931 18.938 33.633 18.6539 33.8944 18.565C34.1559 18.4762 34.4398 18.6161 34.5287 18.8776M32.4785 22.4743C31.7636 22.0641 31.2143 21.3858 30.9846 20.5528L29.7422 16.0475C29.6337 15.654 29.8259 15.3118 30.0736 15.1316C30.3192 14.9529 30.6902 14.8781 31.028 15.0675C31.3665 15.2572 31.7768 15.4623 32.1967 15.6152C32.6226 15.7702 33.0244 15.8589 33.3561 15.8465C33.8324 15.8287 34.1529 15.5959 34.6047 15.2554L34.6197 15.2442C35.0495 14.9202 35.607 14.5 36.4372 14.5C37.2673 14.5 37.8249 14.9202 38.2547 15.2442L38.2696 15.2554C38.7215 15.5959 39.042 15.8287 39.5183 15.8465C39.85 15.8589 40.2518 15.7702 40.6777 15.6152C41.0976 15.4623 41.5079 15.2572 41.8463 15.0675C42.1842 14.8781 42.5552 14.9529 42.8008 15.1316C43.0485 15.3118 43.2407 15.654 43.1322 16.0475L41.8898 20.5528C41.8001 20.8781 41.6617 21.1797 41.4837 21.451C42.0031 21.3411 42.5737 21.2422 43.2016 21.1904C44.8125 21.0577 46.7652 21.2385 49.2224 22.2801C49.4766 22.3878 49.5954 22.6813 49.4876 22.9355C49.3799 23.1898 49.0864 23.3085 48.8321 23.2008C46.5256 22.2231 44.7352 22.0674 43.2837 22.187C43.2496 22.1899 43.2157 22.1928 43.182 22.1959C43.4375 22.2577 43.6941 22.3274 43.9495 22.405C45.627 22.9149 47.3559 23.7966 48.3995 25.1236C48.5702 25.3407 48.5326 25.655 48.3155 25.8257C48.0985 25.9964 47.7841 25.9588 47.6134 25.7418C46.7515 24.6457 45.2478 23.8448 43.6587 23.3618C43.1282 23.2006 42.5998 23.0783 42.097 22.9926C46.646 24.9378 49.9152 29.2968 50.207 34.4912L50.4885 39.5025C50.7217 43.6529 47.3827 47.1346 43.1943 47.1346H31.8331V47.3077C31.8331 47.7148 31.5826 48.0211 31.3196 48.226C31.0503 48.4359 30.6919 48.6031 30.2937 48.7344C29.4918 48.9988 28.4157 49.1538 27.2498 49.1538C26.0839 49.1538 25.0078 48.9988 24.206 48.7344C23.983 48.6609 23.7726 48.5762 23.5832 48.479C23.5267 48.645 23.4437 48.8008 23.341 48.9446C22.9775 49.4531 22.352 49.8362 21.6328 50.0921C20.9023 50.352 20.0222 50.5 19.0833 50.5C18.1443 50.5 17.2643 50.352 16.5337 50.0921C15.8145 49.8362 15.1891 49.4531 14.8256 48.9446C14.6254 48.6645 14.5 48.3383 14.5 47.9808V45.2885C14.5 44.4365 15.1843 43.8031 15.9743 43.4125C16.1512 43.325 16.3409 43.2454 16.5416 43.1743V27.7885C16.5416 26.9365 17.226 26.3031 18.016 25.9125C18.7208 25.5639 19.6306 25.3399 20.6249 25.2834V19.0385C20.6249 18.1865 21.3092 17.5531 22.0992 17.1625C22.9207 16.7562 24.0206 16.5192 25.2082 16.5192C26.3958 16.5192 27.4956 16.7562 28.3171 17.1625C29.1071 17.5531 29.7915 18.1865 29.7915 19.0385V23.5881C30.6377 23.1277 31.5374 22.7527 32.4785 22.4743ZM29.7915 24.74V37.1166C30.2976 37.2959 30.7448 37.5331 31.0913 37.8238C31.5177 38.1815 31.8331 38.6594 31.8331 39.2308V46.1346H43.1943C46.8197 46.1346 49.6904 43.1243 49.4901 39.5585L49.2086 34.5473C48.888 28.8401 44.6735 24.2121 39.1929 23.1389L41.171 24.704C41.3875 24.8754 41.4242 25.1898 41.2528 25.4064C41.0815 25.623 40.767 25.6596 40.5505 25.4883L37.2985 22.9152C37.1785 22.9102 37.058 22.9068 36.9372 22.9051V25.0962C36.9372 25.3723 36.7133 25.5962 36.4372 25.5962C36.161 25.5962 35.9372 25.3723 35.9372 25.0962M37.0768 21.8503L37.0779 21.8489L37.0831 21.8427L37.1045 21.8172C37.1233 21.7946 37.1509 21.7611 37.1851 21.7189C37.2537 21.6343 37.3484 21.5152 37.4523 21.3777C37.6653 21.096 37.8976 20.7623 38.0327 20.4954C38.1679 20.2281 38.2987 19.8434 38.3991 19.5053C38.448 19.3404 38.4877 19.1938 38.515 19.0886C38.5287 19.036 38.5392 18.9941 38.5462 18.9656L38.5541 18.9333L38.556 18.9255L38.5564 18.9238C38.6198 18.6551 38.8892 18.4884 39.1579 18.5518C39.4267 18.6153 39.5931 18.8845 39.5297 19.1533L39.5287 19.1575L39.5262 19.1678L39.5171 19.2052C39.5092 19.2372 39.4977 19.2832 39.4829 19.3401C39.4534 19.4536 39.4107 19.6116 39.3577 19.7899C39.2543 20.1384 39.1029 20.5951 38.925 20.9469C38.7626 21.2677 38.5163 21.6235 38.3077 21.9038H38.7815C39.7874 21.9038 40.6635 21.2383 40.9258 20.287L42.0873 16.0747C41.7698 16.2422 41.4028 16.4154 41.0198 16.5548C40.5383 16.7301 39.9971 16.8651 39.481 16.8458C38.6766 16.8158 38.1298 16.4029 37.71 16.0859C37.6958 16.0752 37.6818 16.0646 37.6679 16.0541C37.2226 15.7186 36.9061 15.5 36.4372 15.5C35.9682 15.5 35.6518 15.7186 35.2065 16.0541C35.1926 16.0646 35.1786 16.0752 35.1644 16.0859M37.0768 21.8503L37.0314 21.9038H36.0617L36.0502 21.8874M30.8331 39.2308C30.8331 39.0547 30.7379 38.8326 30.4486 38.5899C30.1601 38.3479 29.7195 38.1242 29.1539 37.9624C28.6016 37.8044 27.9509 37.7115 27.2498 37.7115C26.5488 37.7115 25.898 37.8044 25.3457 37.9624C24.7801 38.1242 24.3396 38.3479 24.051 38.5899C23.7617 38.8326 23.6665 39.0547 23.6665 39.2308C23.6665 39.4069 23.7617 39.6289 24.051 39.8716C24.3396 40.1137 24.7801 40.3374 25.3457 40.4991C25.898 40.6571 26.5488 40.75 27.2498 40.75C27.9509 40.75 28.6016 40.6571 29.1539 40.4991C29.7195 40.3374 30.1601 40.1137 30.4486 39.8716C30.7379 39.6289 30.8331 39.4069 30.8331 39.2308ZM23.6665 40.8322C24.0576 41.0977 24.5396 41.3087 25.0707 41.4606C25.7195 41.6462 26.4634 41.75 27.2498 41.75C28.0362 41.75 28.7801 41.6462 29.429 41.4606C29.9601 41.3087 30.442 41.0977 30.8331 40.8322V47.2999C30.8281 47.3129 30.804 47.36 30.7048 47.4373C30.5608 47.5496 30.3213 47.6724 29.9806 47.7847C29.3046 48.0076 28.3391 48.1538 27.2498 48.1538C26.1606 48.1538 25.1951 48.0076 24.5191 47.7847C24.1784 47.6724 23.9388 47.5496 23.7948 47.4373C23.6956 47.36 23.6715 47.3129 23.6665 47.2999V40.8322ZM22.6665 39.2308C22.6665 38.6594 22.9819 38.1815 23.4083 37.8238C23.7548 37.5331 24.2021 37.2959 24.7082 37.1166V29.3892C24.5581 29.4913 24.3983 29.5832 24.2339 29.6645C23.4124 30.0707 22.3125 30.3077 21.1249 30.3077C19.9373 30.3077 18.8375 30.0707 18.016 29.6645C17.8515 29.5832 17.6917 29.4913 17.5416 29.3892V42.7692H19.0833C19.8697 42.7692 20.6136 42.873 21.2624 43.0587C21.7935 43.2106 22.2755 43.4215 22.6665 43.687V39.2308ZM19.0833 43.7692C18.0157 43.7692 17.074 43.9843 16.4176 44.3088C15.7297 44.649 15.5 45.0252 15.5 45.2885C15.5 45.5317 15.693 45.8718 16.2815 46.197C16.938 46.5597 17.9365 46.8077 19.0833 46.8077C20.23 46.8077 21.2285 46.5597 21.885 46.197C22.4735 45.8718 22.6665 45.5317 22.6665 45.2885C22.6665 45.1124 22.5714 44.8903 22.2821 44.6476C21.9935 44.4056 21.5529 44.1819 20.9874 44.0201C20.4351 43.8621 19.7843 43.7692 19.0833 43.7692ZM15.5 46.8895V47.9808C15.5 48.0952 15.5384 48.2221 15.6391 48.3631C15.8362 48.6388 16.2472 48.9288 16.8689 49.1499C17.4792 49.3671 18.2443 49.5 19.0833 49.5C19.9222 49.5 20.6873 49.3671 21.2976 49.1499C21.9193 48.9288 22.3304 48.6388 22.5274 48.3631C22.6282 48.2221 22.6665 48.0952 22.6665 47.9808V46.8895C22.5706 46.9549 22.4708 47.0158 22.3686 47.0723C21.5298 47.5357 20.3552 47.8077 19.0833 47.8077C17.8114 47.8077 16.6368 47.5357 15.7979 47.0723C15.6958 47.0158 15.596 46.9549 15.5 46.8895ZM17.5416 27.7885C17.5416 28.0517 17.7714 28.4279 18.4592 28.7681C19.1156 29.0927 20.0574 29.3077 21.1249 29.3077C22.1924 29.3077 23.1342 29.0927 23.7906 28.7681C24.4784 28.4279 24.7082 28.0517 24.7082 27.7885C24.7082 27.5252 24.4784 27.149 23.7906 26.8088C23.1342 26.4843 22.1924 26.2692 21.1249 26.2692C20.0574 26.2692 19.1156 26.4843 18.4592 26.8088C17.7714 27.149 17.5416 27.5252 17.5416 27.7885ZM25.7082 27.7885V36.851C26.1907 36.7604 26.7103 36.7115 27.2498 36.7115C27.7894 36.7115 28.3089 36.7604 28.7915 36.851V20.6392C28.6414 20.7413 28.4816 20.8332 28.3171 20.9145C27.4956 21.3207 26.3958 21.5577 25.2082 21.5577C24.0206 21.5577 22.9207 21.3207 22.0992 20.9145C21.9348 20.8332 21.775 20.7413 21.6249 20.6392V25.2834C22.6192 25.3399 23.529 25.5639 24.2339 25.9125C25.0239 26.3031 25.7082 26.9365 25.7082 27.7885ZM21.6249 19.0385C21.6249 19.3017 21.8547 19.6779 22.5425 20.0181C23.1989 20.3427 24.1406 20.5577 25.2082 20.5577C26.2757 20.5577 27.2175 20.3427 27.8739 20.0181C28.5617 19.6779 28.7915 19.3017 28.7915 19.0385C28.7915 18.7752 28.5617 18.399 27.8739 18.0588C27.2175 17.7343 26.2757 17.5192 25.2082 17.5192C24.1406 17.5192 23.1989 17.7343 22.5425 18.0588C21.8547 18.399 21.6249 18.7752 21.6249 19.0385ZM30.8342 47.2963C30.8342 47.2963 30.8342 47.2968 30.8338 47.2978ZM36.5969 31.6508V34.7076C37.2 34.7112 37.7267 34.7085 38.1863 34.6852C38.7711 34.6555 39.2123 34.5937 39.541 34.4858C39.8604 34.3809 40.0439 34.2425 40.1578 34.0726C40.2761 33.8959 40.3607 33.623 40.3607 33.1731C40.3607 32.6531 40.2481 32.3548 40.105 32.1714C39.963 31.9894 39.7392 31.8544 39.3796 31.7655C39.0137 31.675 38.5519 31.6433 37.9851 31.6381C37.6718 31.6352 37.3595 31.6399 37.027 31.6449C36.8877 31.647 36.7448 31.6492 36.5969 31.6508ZM36.5969 35.7076C37.2032 35.7113 37.7518 35.7085 38.237 35.6839C38.85 35.6528 39.3968 35.5856 39.8529 35.4359C40.3184 35.283 40.7168 35.0349 40.9886 34.6291C41.2559 34.2301 41.3607 33.7379 41.3607 33.1731C41.3607 32.5152 41.2181 31.9722 40.8933 31.5561C40.5675 31.1387 40.1108 30.9161 39.6196 30.7947C39.1349 30.6748 38.5759 30.6434 37.9943 30.6381C37.688 30.6353 37.3429 30.6402 36.9882 30.6453C36.6921 30.6495 36.3893 30.6539 36.0969 30.6539L35.5969 30.6539V34.6992C35.4684 34.6981 35.3407 34.6971 35.2246 34.6962L34.7403 34.6923C34.4641 34.6902 34.238 34.9123 34.2358 35.1885C34.2337 35.4646 34.4558 35.6902 34.732 35.6923L35.2166 35.6961C35.3351 35.6971 35.4657 35.6982 35.5969 35.6993V36.7115H34.7358C34.4597 36.7115 34.2358 36.9354 34.2358 37.2115C34.2358 37.4877 34.4597 37.7115 34.7358 37.7115H35.5969V38.5577C35.5969 38.8339 35.8208 39.0577 36.0969 39.0577C36.373 39.0577 36.5969 38.8339 36.5969 38.5577V37.7115H37.458C37.7341 37.7115 37.958 37.4877 37.958 37.2115C37.958 36.9354 37.7341 36.7115 37.458 36.7115H36.5969V35.7076ZM48.0326 38.3949C48.3084 38.4094 48.5202 38.6446 48.5058 38.9204L48.0065 38.8942C48.5058 38.9204 48.5058 38.9203 48.5058 38.9204L48.5057 38.9218L48.5056 38.9241L48.5051 38.9314L48.5035 38.9569C48.502 38.9786 48.4998 39.0094 48.4965 39.0485C48.49 39.1266 48.4793 39.2377 48.4625 39.3739C48.4291 39.6456 48.3711 40.0208 48.2722 40.435C48.0802 41.2396 47.7122 42.2892 46.9852 42.9629C46.2271 43.6655 44.9961 44.0214 44.0454 44.2093C43.5545 44.3064 43.1071 44.3642 42.7827 44.3979C42.6201 44.4148 42.4876 44.4256 42.3949 44.4323C42.3485 44.4357 42.3121 44.438 42.2867 44.4395L42.2572 44.4412L42.249 44.4416L42.2466 44.4417L42.2455 44.4417C42.2454 44.4418 42.2453 44.4418 42.2226 43.96L42.2455 44.4417C41.9697 44.4547 41.7353 44.2416 41.7224 43.9658C41.7094 43.69 41.9225 43.4558 42.1983 43.4429L42.2044 43.4425L42.2278 43.4412C42.249 43.44 42.281 43.438 42.3228 43.4349C42.4063 43.4289 42.5284 43.4189 42.6795 43.4032C42.9822 43.3718 43.3982 43.3179 43.8515 43.2283C44.7891 43.0429 45.7699 42.7257 46.3055 42.2294C46.8051 41.7664 47.1176 40.9651 47.2995 40.2029C47.3876 39.8337 47.4399 39.4965 47.47 39.2518C47.485 39.1297 47.4944 39.0315 47.5 38.9649C47.5028 38.9315 47.5047 38.9062 47.5058 38.8897L47.5069 38.8718L47.5071 38.8681C47.5071 38.8681 47.5071 38.8682 47.5071 38.8681M48.0326 38.3949C47.7569 38.3805 47.5217 38.5925 47.5071 38.8681Z" fill="#B20237"/>
</svg>
