<svg width="65" height="65" viewBox="0 0 65 65" fill="none" xmlns="http://www.w3.org/2000/svg">
<path d="M5 12C5 8.13401 8.13401 5 12 5H53C56.866 5 60 8.13401 60 12V53C60 56.866 56.866 60 53 60H12C8.13401 60 5 56.866 5 53V12Z" fill="#B20237"/>
<path fill-rule="evenodd" clip-rule="evenodd" d="M0 11C0 4.92487 4.92487 0 11 0H54C60.0751 0 65 4.92487 65 11V54C65 60.0751 60.0751 65 54 65H11C4.92487 65 0 60.0751 0 54V11ZM11 2C6.02944 2 2 6.02944 2 11V54C2 58.9706 6.02944 63 11 63H54C58.9706 63 63 58.9706 63 54V11C63 6.02944 58.9706 2 54 2H11Z" fill="#B20237"/>
<path d="M55 29.5983C55 32.7178 45.1503 35.2468 33 35.2468C20.8497 35.2468 11 32.7178 11 29.5983C11 27.8237 14.1871 26.2403 19.1718 25.2048L21.0686 18.0041C21.7456 15.4341 24.8793 14.3097 27.3148 15.4511C29.1369 16.3051 31.2021 17.0276 33 17.0461C34.9537 17.0661 37.217 16.3066 39.1925 15.4137C41.6669 14.2954 44.8077 15.524 45.3984 18.14L47.0017 25.2412C51.8868 26.2773 55 27.8444 55 29.5983Z" fill="white"/>
<path fill-rule="evenodd" clip-rule="evenodd" d="M47.8931 38.0712C43.4294 38.6989 38.9663 39.0124 33.2265 39.0124C27.4866 39.0124 23.0236 38.6989 18.5598 38.0712C16.6468 37.8022 15.615 39.7318 16.3279 41.8368C18.8786 49.368 27.1685 50.75 29.7192 49.6819C30.4386 49.3806 30.9695 48.8225 31.458 48.3089C32.0277 47.7099 32.5399 47.1714 33.2265 47.1714C33.9131 47.1714 34.4253 47.7099 34.995 48.3089C35.4835 48.8225 36.0143 49.3806 36.7337 49.6819C39.2844 50.75 47.5743 49.368 50.125 41.8368C50.8379 39.7318 49.8062 37.8022 47.8931 38.0712ZM21.5214 42.7781C21.7397 41.7033 23.4345 41.5229 24.7098 41.5229C26.304 41.5229 29.8122 42.1505 29.8122 43.4057C29.8122 44.9655 27.6204 46.1565 25.6666 45.9162C23.116 45.6024 21.3667 43.5399 21.5214 42.7781ZM41.6096 41.5229C42.885 41.5229 44.5797 41.7033 44.798 42.7781C44.9527 43.5399 43.2035 45.6024 40.6528 45.9162C38.699 46.1565 36.5072 44.9655 36.5072 43.4057C36.5072 42.1505 40.0154 41.5229 41.6096 41.5229Z" fill="white"/>
<path fill-rule="evenodd" clip-rule="evenodd" d="M38.8836 14.7302C41.6993 13.4576 45.4137 14.8026 46.1299 17.9747L47.6281 24.6102C49.8955 25.1185 51.803 25.7516 53.1856 26.4887C53.9237 26.8822 54.5475 27.3239 54.9951 27.8219C55.4467 28.3245 55.75 28.9221 55.75 29.5982C55.75 30.7972 54.8187 31.7348 53.6603 32.438C52.4572 33.1683 50.7662 33.7992 48.7429 34.3187C44.6848 35.3606 39.1192 35.9967 33 35.9967C26.8808 35.9967 21.3152 35.3606 17.2571 34.3187C15.2338 33.7992 13.5428 33.1683 12.3397 32.438C11.1813 31.7348 10.25 30.7972 10.25 29.5982C10.25 28.914 10.5605 28.3104 11.021 27.8041C11.4776 27.3021 12.1141 26.857 12.8674 26.4606C14.2838 25.7153 16.24 25.0769 18.5641 24.5676L20.3434 17.813C21.1643 14.6965 24.8663 13.4752 27.6331 14.772C29.4286 15.6135 31.3746 16.2793 33.0077 16.2961C34.7931 16.3144 36.9336 15.6115 38.8836 14.7302ZM18.1326 26.2057C16.2242 26.665 14.675 27.2045 13.5659 27.7881C12.8994 28.1388 12.4275 28.4871 12.1307 28.8134C11.8379 29.1353 11.75 29.3951 11.75 29.5982C11.75 29.959 12.0499 30.5073 13.118 31.1557C14.1415 31.777 15.6723 32.3632 17.6302 32.8659C21.5346 33.8683 26.9689 34.4967 33 34.4967C39.0311 34.4967 44.4654 33.8683 48.3698 32.8659C50.3277 32.3632 51.8585 31.777 52.882 31.1557C53.9501 30.5073 54.25 29.959 54.25 29.5982C54.25 29.3974 54.1642 29.1414 53.8794 28.8245C53.5905 28.5031 53.1307 28.1593 52.4799 27.8123C51.3932 27.233 49.8724 26.6959 47.9954 26.2367L48.5731 28.7952C48.7471 29.5658 48.238 30.3191 47.4576 30.4489C45.3104 30.806 38.2177 31.9172 33 31.9172C27.8002 31.9172 20.7383 30.8136 18.5649 30.4527C17.7641 30.3197 17.2559 29.5335 17.4618 28.7521L18.1326 26.2057ZM44.6668 18.3051C44.2017 16.2452 41.6344 15.133 39.5014 16.0971C37.5003 17.0015 35.1144 17.8177 32.9923 17.796C31.0296 17.7758 28.8451 16.9966 26.9965 16.1302C24.8923 15.144 22.3269 16.1716 21.7939 18.1951L18.9488 28.9958C21.2717 29.3784 28.042 30.4172 33 30.4172C37.9785 30.4172 44.7843 29.3698 47.0795 28.9911L44.6668 18.3051ZM47.1099 29.1256C47.1099 29.1257 47.1099 29.1255 47.1099 29.1256ZM15.8084 38.6908C16.3657 37.7184 17.3978 37.1504 18.6642 37.3285C23.0892 37.9507 27.5171 38.2624 33.2265 38.2624C38.9359 38.2624 43.3637 37.9507 47.7887 37.3285C49.0551 37.1504 50.0873 37.7184 50.6445 38.6908C51.1808 39.6266 51.2457 40.866 50.8354 42.0773C49.4782 46.0844 46.5882 48.4548 43.7231 49.6741C42.2932 50.2827 40.8597 50.6097 39.6052 50.7132C38.3698 50.8152 37.2375 50.7059 36.444 50.3736C35.5781 50.011 34.954 49.3544 34.4863 48.8623C34.4746 48.85 34.463 48.8378 34.4515 48.8258C34.1548 48.5137 33.9315 48.2824 33.7104 48.1199C33.5037 47.9679 33.3571 47.9214 33.2265 47.9214C33.0959 47.9214 32.9493 47.9679 32.7425 48.1199C32.5214 48.2824 32.2982 48.5137 32.0014 48.8258C31.9899 48.8378 31.9783 48.85 31.9667 48.8623C31.4989 49.3544 30.8749 50.011 30.0089 50.3736C29.2155 50.7059 28.0832 50.8152 26.8478 50.7132C25.5932 50.6097 24.1597 50.2827 22.7299 49.6741C19.8647 48.4548 16.9747 46.0844 15.6176 42.0773C15.2073 40.866 15.2721 39.6266 15.8084 38.6908ZM17.1099 39.4366C16.8302 39.9246 16.7356 40.7025 17.0383 41.5961C18.2319 45.1202 20.7621 47.2065 23.3173 48.2939C24.5976 48.8388 25.8742 49.1277 26.9711 49.2183C28.0872 49.3104 28.9476 49.1918 29.4295 48.99C29.9808 48.7592 30.409 48.3235 30.9145 47.792L30.9377 47.7677C31.2054 47.4861 31.515 47.1604 31.8543 46.9111C32.2177 46.6441 32.6705 46.4214 33.2265 46.4214C33.7825 46.4214 34.2353 46.6441 34.5987 46.9111C34.9379 47.1604 35.2476 47.4861 35.5153 47.7677L35.5384 47.792C36.044 48.3235 36.4722 48.7592 37.0234 48.99C37.5053 49.1918 38.3658 49.3104 39.4818 49.2183C40.5787 49.1277 41.8554 48.8388 43.1357 48.2939C45.6908 47.2065 48.2211 45.1202 49.4147 41.5961C49.7173 40.7025 49.6227 39.9246 49.3431 39.4366C49.0844 38.9852 48.6442 38.7229 47.9976 38.8139C43.495 39.447 38.9968 39.7624 33.2265 39.7624C27.4562 39.7624 22.9579 39.447 18.4554 38.8139C17.8087 38.7229 17.3685 38.9852 17.1099 39.4366ZM22.266 42.8925C22.2726 42.9172 22.2952 43.0036 22.3893 43.1615C22.5245 43.3882 22.7541 43.669 23.0757 43.9527C23.7189 44.5201 24.6573 45.0363 25.7582 45.1717C26.5653 45.271 27.4374 45.0717 28.0938 44.6883C28.7586 44.3 29.0538 43.8241 29.062 43.4229C29.0507 43.4 29.002 43.325 28.8238 43.2064C28.5611 43.0317 28.1555 42.8612 27.6489 42.7136C26.6417 42.4199 25.4369 42.2728 24.7098 42.2728C24.0917 42.2728 23.4359 42.3184 22.9308 42.4669C22.4474 42.609 22.3058 42.7775 22.266 42.8925ZM22.5077 41.0278C23.2233 40.8174 24.0526 40.7728 24.7098 40.7728C25.577 40.7728 26.9234 40.9396 28.0688 41.2735C28.6386 41.4396 29.2096 41.6615 29.6546 41.9575C30.0765 42.2381 30.5622 42.709 30.5622 43.4057C30.5622 44.5607 29.7603 45.4521 28.8504 45.9836C27.9225 46.5255 26.7218 46.8016 25.5751 46.6605C24.1253 46.4821 22.9137 45.8101 22.0833 45.0775C21.6681 44.7111 21.33 44.3138 21.101 43.9297C20.8964 43.5866 20.6896 43.1054 20.7864 42.6288C20.9817 41.6675 21.8218 41.2295 22.5077 41.0278ZM38.2507 41.2735C39.3961 40.9396 40.7424 40.7728 41.6096 40.7728C42.2668 40.7728 43.0961 40.8174 43.8118 41.0278C44.4976 41.2295 45.3378 41.6675 45.533 42.6288C45.6298 43.1054 45.4231 43.5866 45.2185 43.9297C44.9895 44.3138 44.6514 44.7111 44.2361 45.0775C43.4058 45.8101 42.1942 46.4821 40.7444 46.6605C39.5976 46.8016 38.397 46.5255 37.4691 45.9836C36.5591 45.4521 35.7572 44.5607 35.7572 43.4057C35.7572 42.709 36.243 42.2381 36.6649 41.9575C37.1099 41.6615 37.6809 41.4396 38.2507 41.2735ZM37.2574 43.4229C37.2688 43.4 37.3174 43.325 37.4957 43.2064C37.7583 43.0317 38.164 42.8612 38.6705 42.7136C39.6777 42.4199 40.8826 42.2728 41.6096 42.2728C42.2278 42.2728 42.8835 42.3184 43.3887 42.4669C43.8721 42.609 44.0137 42.7775 44.0535 42.8925C44.0468 42.9172 44.0243 43.0036 43.9301 43.1615C43.7949 43.3882 43.5653 43.669 43.2438 43.9527C42.6005 44.5201 41.6622 45.0363 40.5612 45.1717C39.7542 45.271 38.8821 45.0717 38.2256 44.6883C37.5608 44.3 37.2657 43.8241 37.2574 43.4229Z" fill="#B20237"/>
</svg>
