<svg width="65" height="65" viewBox="0 0 65 65" fill="none" xmlns="http://www.w3.org/2000/svg">
<path d="M5 12C5 8.13401 8.13401 5 12 5H53C56.866 5 60 8.13401 60 12V53C60 56.866 56.866 60 53 60H12C8.13401 60 5 56.866 5 53V12Z" fill="#B20237"/>
<path fill-rule="evenodd" clip-rule="evenodd" d="M0 11C0 4.92487 4.92487 0 11 0H54C60.0751 0 65 4.92487 65 11V54C65 60.0751 60.0751 65 54 65H11C4.92487 65 0 60.0751 0 54V11ZM11 2C6.02944 2 2 6.02944 2 11V54C2 58.9706 6.02944 63 11 63H54C58.9706 63 63 58.9706 63 54V11C63 6.02944 58.9706 2 54 2H11Z" fill="#B20237"/>
<path d="M24.5195 24.4836C23.4702 26.3333 23.4618 28.2987 23.3295 29.5034C23.0651 29.3696 22.2983 28.4191 21.3463 27.2947C20.3944 26.1703 19.1648 26.09 17.7765 27.2947C17.5121 26.09 17.6337 21.8186 19.1648 18.8614C21.4389 14.469 24.7098 12.7705 29.4775 11.6329C35.8251 10.1184 41.3487 11.1941 45.5416 16.2512C49.283 20.7635 47.3964 30.3447 48.1897 30.5455C49.4767 30.8712 50.4116 33.5489 49.8167 35.7576C49.3023 37.6669 47.4883 39.543 46.5628 39.9446C46.3644 40.48 46.0669 41.9314 45.5416 43.358C44.1639 47.1002 42.1275 48.9991 38.6004 50.7873C35.1129 52.5554 29.8742 51.7913 28.6842 51.9921C27.4313 52.2035 26.1061 54 26.1061 54C25.0483 53.9331 22.26 53.7903 19.9581 52.996C17.8923 52.2833 15.6611 50.9881 15 50.3857C15.8594 47.8424 19.5266 44.8094 20.3547 39.543C20.7302 37.155 20.1564 32.7161 18.3715 30.1058C17.965 29.5114 19.0732 29.104 19.7597 29.3026C22.0525 29.9658 22.8126 33.0937 23.2684 35.7463C23.394 36.477 24.235 36.8327 24.846 36.4128C26.2126 35.4736 28.3817 34.0289 30.0725 33.1177C31.8312 32.1698 34.386 31.091 35.7921 30.5167C36.3645 30.283 37.0143 30.5487 37.2675 31.1127C37.5538 31.7503 37.2166 32.4965 36.5563 32.7253C35.6706 33.0323 34.4935 33.4742 33.6423 33.9208C32.5031 34.5186 31.0152 35.6139 30.3807 36.0941C30.1998 36.2311 30.1445 36.4762 30.245 36.6797C30.3668 36.9262 30.6704 37.0205 30.9113 36.8881C31.7298 36.4385 33.517 35.4779 34.8322 34.9248C36.0305 34.4208 37.7291 33.8799 38.7399 33.5719C39.2327 33.4218 39.7578 33.6543 39.986 34.1162C40.2909 34.7336 39.9405 35.4767 39.2743 35.6508C38.2568 35.9169 36.8505 36.3161 35.8239 36.7319C34.4581 37.285 32.6473 38.3197 31.7751 38.8344C31.4889 39.0032 31.3984 39.3708 31.5678 39.6567C31.7309 39.9318 32.0782 40.0345 32.3651 39.8934C33.213 39.4765 34.9494 38.6394 36.2205 38.1374C37.2526 37.7299 38.6899 37.2621 39.5778 36.9822C40.0384 36.8369 40.5313 37.0645 40.7254 37.5068C40.9626 38.0472 40.6591 38.6736 40.0928 38.8394C39.1937 39.1027 37.9213 39.5102 37.0138 39.9446C35.8726 40.4908 34.4047 41.5121 33.6843 42.0321C33.4326 42.2137 33.3653 42.5559 33.5235 42.8229C33.6976 43.1166 34.0794 43.2107 34.3734 43.0372C34.989 42.6737 36.0193 42.0885 36.8155 41.7517C37.5389 41.4457 38.5459 41.1431 39.23 40.9514C39.6607 40.8308 40.1063 41.0655 40.2617 41.4849C40.4364 41.9568 40.1811 42.4804 39.7057 42.6455C38.2561 43.1491 35.3524 44.2551 33.6423 45.5667C31.8962 46.906 29.62 49.7342 29.62 49.7342C29.62 49.7342 31.8464 49.8275 32.849 49.7342C36.9191 49.3556 39.4532 48.4352 42.0073 45.2045C43.922 42.7827 44.55 38.1374 44.9467 38.1374C45.3433 38.1374 45.74 38.7398 47.1282 36.7319C48.5847 34.6253 48.3182 32.7161 47.1282 32.3145C46.2969 32.034 45.5417 32.7161 45.5417 33.9208C45.5416 34.5333 45.5416 35.3264 44.55 35.3264C43.5584 35.3264 43.7567 34.5232 43.7567 32.5153C43.7567 30.5074 42.4808 28.4433 40.7819 26.8931C38.0957 24.4421 35.3239 26.2733 31.8574 25.6884C29.4775 25.2868 27.0977 23.0781 26.701 21.8733C26.701 21.8733 25.0981 23.4637 24.5195 24.4836Z" fill="white"/>
<path fill-rule="evenodd" clip-rule="evenodd" d="M38.4453 10.9943C41.2515 11.7344 43.7685 13.329 45.9267 15.932C47.9157 18.331 48.3759 22.0132 48.4711 24.9992C48.507 26.1238 48.491 27.1788 48.4778 28.0495C48.4734 28.344 48.4693 28.6174 48.4676 28.8653C48.4641 29.3656 48.4707 29.7469 48.4988 30.0044C48.5042 30.0538 48.51 30.094 48.5155 30.1263C48.8911 30.2743 49.2088 30.5518 49.4644 30.8785C49.7678 31.2661 50.0109 31.7561 50.1846 32.291C50.531 33.3577 50.6253 34.6786 50.2996 35.8876C50.0174 36.9353 49.3894 37.9455 48.7277 38.7372C48.1531 39.4246 47.5063 40.0026 46.9718 40.299C46.9171 40.4779 46.853 40.7181 46.7742 41.0134C46.7385 41.1471 46.6998 41.2922 46.6575 41.4479C46.4916 42.06 46.2814 42.7964 46.011 43.5308C45.3028 45.4543 44.416 46.9276 43.2374 48.1521C42.0621 49.3733 40.6178 50.3252 38.8266 51.2333C36.9809 52.1691 34.7073 52.4217 32.7954 52.4772C31.8721 52.5041 31.017 52.4851 30.321 52.4696L30.2343 52.4677C29.4937 52.4513 29.0056 52.445 28.7676 52.4851C28.305 52.5632 27.7563 52.9638 27.2744 53.4334C27.0456 53.6564 26.8523 53.8745 26.7162 54.037C26.6483 54.118 26.5953 54.1846 26.5597 54.2301C26.5419 54.2529 26.5285 54.2704 26.5199 54.2818L26.5105 54.2942L26.5086 54.2968L26.3467 54.5162L26.0746 54.499C26.0265 54.496 25.9745 54.4927 25.9189 54.4893C24.7686 54.4183 22.0629 54.2511 19.7951 53.4687C18.73 53.1012 17.6301 52.5867 16.7138 52.0889C15.8089 51.5973 15.041 51.0994 14.6634 50.7553L14.4219 50.5353L14.5265 50.2257C14.7632 49.5251 15.1844 48.8135 15.6655 48.0839C15.8802 47.7583 16.1122 47.4214 16.3501 47.0758C16.3806 47.0315 16.4112 46.9871 16.4418 46.9426C16.713 46.5484 16.992 46.1407 17.2701 45.713C18.3813 44.0039 19.4627 41.9981 19.8609 39.4653C20.0376 38.3417 19.9941 36.6939 19.6817 34.9984C19.3691 33.3019 18.7975 31.6144 17.9589 30.388C17.7706 30.1127 17.7244 29.7856 17.8705 29.4837C17.997 29.2224 18.2316 29.0569 18.4377 28.9569C18.8509 28.7566 19.4265 28.6857 19.8988 28.8223C21.2505 29.2133 22.0999 30.3195 22.6598 31.5748C23.2208 32.8327 23.5328 34.3313 23.7614 35.6617C23.8253 36.0335 24.2533 36.2136 24.5629 36.0007C25.93 35.0612 28.1186 33.6028 29.8354 32.6775C31.6202 31.7156 34.1976 30.628 35.6032 30.0539C36.429 29.7166 37.362 30.1021 37.7238 30.9079C38.1346 31.8228 37.6478 32.8763 36.7201 33.1978C35.8373 33.5037 34.6905 33.9356 33.8748 34.3636C32.8994 34.8753 31.6402 35.7779 30.9248 36.311C31.822 35.8226 33.4218 34.9756 34.6386 34.4639C35.8629 33.949 37.5835 33.4016 38.5943 33.0937C39.3257 32.8708 40.0999 33.2174 40.4344 33.8948C40.8833 34.8038 40.3652 35.8825 39.4009 36.1346C38.3855 36.4001 37.0061 36.7926 36.0117 37.1954C34.6846 37.7328 32.9031 38.7494 32.0293 39.265C31.9863 39.2904 31.9667 39.3488 31.9981 39.4018C32.0275 39.4514 32.091 39.4711 32.1447 39.4447C32.9918 39.0282 34.7448 38.1827 36.037 37.6724C37.0872 37.2577 38.5395 36.7854 39.4276 36.5053C40.1351 36.2822 40.8882 36.6332 41.1834 37.3058C41.5458 38.1313 41.0799 39.0715 40.2334 39.3193C39.3365 39.5819 38.0978 39.9801 37.2298 40.3956C36.134 40.9201 34.6992 41.9163 33.977 42.4375C33.94 42.4642 33.9244 42.5184 33.9538 42.568C33.9844 42.6197 34.058 42.6428 34.1194 42.6066C34.7351 42.2431 35.7908 41.6423 36.6208 41.2912C37.3761 40.9717 38.4099 40.662 39.0953 40.47C39.7836 40.2772 40.4875 40.6546 40.7307 41.3112C41.0054 42.0529 40.6027 42.8633 39.87 43.1178C38.4145 43.6234 35.5844 44.7074 33.9468 45.9635C33.1125 46.6034 32.1326 47.6159 31.3481 48.4873C31.093 48.7706 30.861 49.0363 30.6644 49.2654C30.7304 49.2668 30.7982 49.2681 30.8673 49.2693C31.5517 49.281 32.3327 49.2801 32.8029 49.2364C34.8146 49.0493 36.3998 48.7317 37.7856 48.0857C39.1632 47.4436 40.3766 46.4612 41.6152 44.8945C42.5085 43.7646 43.1225 42.0803 43.5681 40.6171C43.6782 40.2557 43.7768 39.9122 43.8665 39.5978L43.8928 39.5058C43.9717 39.2289 44.0446 38.9734 44.1113 38.7551C44.1839 38.5173 44.2561 38.3004 44.3287 38.1378C44.3638 38.0591 44.4111 37.9654 44.4745 37.8837C44.5192 37.8261 44.675 37.6375 44.9468 37.6375C45.0568 37.6375 45.1526 37.6582 45.2159 37.6736C45.2582 37.6839 45.2813 37.6902 45.3001 37.6953C45.3209 37.7009 45.3364 37.7051 45.3667 37.7118C45.4282 37.7252 45.4649 37.7265 45.5171 37.7103C45.6644 37.6644 46.0279 37.4444 46.7171 36.4476C47.4012 35.4581 47.6488 34.5596 47.6212 33.9049C47.5937 33.2521 47.3097 32.9034 46.9685 32.7883C46.7329 32.7087 46.5326 32.7622 46.3728 32.9183C46.1996 33.0876 46.0418 33.4167 46.0418 33.9208C46.0418 33.9328 46.0418 33.945 46.0418 33.9576C46.0422 34.2383 46.0428 34.6838 45.8736 35.0588C45.7771 35.2729 45.6218 35.4765 45.3813 35.6213C45.145 35.7635 44.8638 35.8264 44.5502 35.8264C44.2434 35.8264 43.9274 35.7654 43.677 35.5444C43.4301 35.3264 43.3333 35.0281 43.2883 34.755C43.2433 34.4816 43.2383 34.1533 43.2414 33.7973C43.2427 33.6554 43.2452 33.5094 43.2478 33.3555C43.2522 33.1026 43.2569 32.8283 43.2569 32.5153C43.2569 30.7065 42.0932 28.7663 40.4451 27.2625C39.2419 26.1646 38.0355 26.0154 36.6392 26.0902C36.2881 26.109 35.9167 26.1441 35.528 26.1808C34.3962 26.2876 33.1184 26.4082 31.7744 26.1814C30.4736 25.9619 29.2066 25.2584 28.2235 24.4726C27.7286 24.077 27.2943 23.6516 26.954 23.2396C26.8132 23.0691 26.6846 22.8962 26.5733 22.7243C26.4594 22.8453 26.332 22.9829 26.1989 23.1307C25.7256 23.6559 25.2141 24.2727 24.9545 24.7303C24.1241 26.1942 23.9911 27.7219 23.8864 28.9244C23.8669 29.1477 23.8485 29.3597 23.8267 29.558L23.748 30.2756L23.1039 29.9495C22.9548 29.874 22.8043 29.7306 22.6864 29.6113C22.5512 29.4745 22.3927 29.2986 22.2188 29.0988C21.9921 28.8384 21.7267 28.5227 21.4386 28.18C21.2863 27.9988 21.1276 27.81 20.9649 27.6178C20.5548 27.1334 20.1353 26.9282 19.7168 26.9212C19.2846 26.914 18.7456 27.1159 18.1044 27.6723L17.4687 28.224L17.2883 27.4019C17.1384 26.7188 17.1098 25.2848 17.301 23.6762C17.4935 22.0564 17.9173 20.1837 18.7209 18.6316C19.8939 16.3659 21.3359 14.7757 23.1116 13.6088C24.879 12.4473 26.9524 11.7215 29.3617 11.1466C32.5911 10.3761 35.6459 10.2559 38.4453 10.9943ZM26.349 21.5184L26.9232 20.9488L27.1761 21.717C27.2476 21.9342 27.4275 22.2425 27.7251 22.6028C28.017 22.9563 28.4007 23.3341 28.8478 23.6915C29.7488 24.4116 30.8616 25.0132 31.9408 25.1953C33.1444 25.3984 34.2284 25.2963 35.3244 25.1931C35.7407 25.1539 36.1587 25.1145 36.5857 25.0917C38.1134 25.0098 39.636 25.1706 41.1191 26.5238C42.8688 28.1203 44.2569 30.3082 44.2569 32.5153C44.2569 32.8325 44.2519 33.1295 44.2474 33.3911C44.2448 33.5422 44.2425 33.6814 44.2414 33.8059C44.2383 34.1652 44.2457 34.4142 44.2751 34.5926C44.2892 34.6784 44.306 34.7312 44.3199 34.7624C44.3265 34.7772 44.3318 34.7856 44.3348 34.7897C44.3363 34.7918 44.3373 34.7931 44.3379 34.7937L44.3388 34.7946L44.3396 34.7953C44.3401 34.7956 44.3412 34.7963 44.3431 34.7974C44.3469 34.7994 44.3553 34.8033 44.3703 34.8076C44.402 34.8168 44.4579 34.8264 44.5502 34.8264C44.7324 34.8264 44.8231 34.7901 44.8656 34.7645C44.904 34.7414 44.9347 34.7085 44.9621 34.6477C45.0332 34.4899 45.0418 34.256 45.0418 33.9208C45.0418 33.2202 45.2617 32.6059 45.6739 32.2031C46.0996 31.7871 46.6926 31.6397 47.2883 31.8408C48.137 32.1272 48.5812 32.9339 48.6203 33.8628C48.6594 34.7898 48.312 35.8991 47.5397 37.0163C46.8406 38.0273 46.3117 38.5101 45.8145 38.665C45.5601 38.7443 45.347 38.7278 45.1828 38.6949C45.1495 38.7873 45.1113 38.9042 45.0677 39.0472C45.0039 39.256 44.9337 39.502 44.854 39.7815L44.8281 39.8722C44.7382 40.1872 44.6376 40.538 44.5247 40.9085C44.0785 42.3735 43.4211 44.2227 42.3997 45.5146C41.0842 47.1785 39.7535 48.2717 38.2081 48.9921C36.6707 49.7087 34.9539 50.0406 32.8955 50.2321C32.363 50.2816 31.5296 50.2808 30.8502 50.2691C30.506 50.2633 30.1937 50.2544 29.9675 50.2471C29.8544 50.2434 29.7626 50.2401 29.699 50.2377L29.6255 50.2349L29.6062 50.2341L29.6011 50.2339L29.5998 50.2338L29.6202 49.7342C29.2307 49.4207 29.2307 49.4207 29.2308 49.4207L29.2327 49.4183L29.238 49.4117L29.2581 49.3868C29.2758 49.3652 29.3016 49.3335 29.335 49.2928C29.4018 49.2115 29.4988 49.0942 29.6205 48.9495C29.8639 48.6602 30.2067 48.2605 30.605 47.8182C31.3951 46.9406 32.4263 45.8694 33.3382 45.17C35.1207 43.8028 38.098 42.6747 39.5418 42.1732C39.7598 42.0975 39.8678 41.8606 39.7929 41.6586C39.7255 41.4764 39.5381 41.3845 39.3651 41.4329C38.6822 41.6242 37.7021 41.9196 37.0104 42.2122C36.2481 42.5347 35.2433 43.1044 34.6278 43.4677C34.1011 43.7787 33.4111 43.6137 33.0935 43.0778C32.8065 42.5935 32.9256 41.9631 33.3918 41.6266C34.1105 41.1079 35.6115 40.0615 36.7981 39.4936C37.745 39.0403 39.0513 38.6234 39.9524 38.3596C40.2387 38.2758 40.3798 37.9631 40.2678 37.7078C40.1747 37.4959 39.942 37.3916 39.7283 37.459C38.8407 37.7389 37.4184 38.2021 36.4043 38.6025C35.1543 39.0961 33.4346 39.9248 32.5859 40.3421C32.0656 40.5979 31.4345 40.4122 31.1378 39.9116C30.8304 39.3929 30.9918 38.7161 31.5211 38.4038C32.3918 37.89 34.2319 36.8373 35.6363 36.2685C36.6952 35.8397 38.1284 35.4337 39.148 35.1671C39.5161 35.0709 39.6987 34.6634 39.5378 34.3376C39.4161 34.0912 39.1401 33.9727 38.8858 34.0502C37.8751 34.3582 36.1985 34.8927 35.0262 35.3857C33.7381 35.9274 31.972 36.876 31.1523 37.3263C30.6638 37.5947 30.0457 37.4049 29.7969 36.9011C29.5925 36.4873 29.7027 35.9804 30.0791 35.6955C30.7112 35.217 32.2296 34.0975 33.4102 33.4781C34.2968 33.0129 35.5041 32.5608 36.3927 32.2529C36.7856 32.1167 36.9733 31.6777 36.8116 31.3175C36.667 30.9954 36.3002 30.8494 35.9813 30.9796C34.5748 31.5541 32.0424 32.624 30.3099 33.5578C28.6451 34.4551 26.4955 35.886 25.1293 36.8249C24.2171 37.4518 22.963 36.9204 22.7758 35.831C22.5486 34.5087 22.2527 33.1171 21.7465 31.9821C21.2391 30.8445 20.562 30.0552 19.621 29.7829C19.4067 29.721 19.085 29.7544 18.8741 29.8567C18.8545 29.8662 18.8382 29.8751 18.8248 29.8833C19.748 31.26 20.3432 33.07 20.6651 34.8172C20.9919 36.5907 21.0476 38.3564 20.8488 39.6207C20.419 42.3543 19.2527 44.4982 18.1084 46.2581C17.8227 46.6976 17.5373 47.1146 17.2657 47.5094C17.2348 47.5542 17.2042 47.5987 17.1738 47.6429C16.935 47.9897 16.7092 48.3178 16.5004 48.6344C16.1133 49.2214 15.8027 49.7432 15.5967 50.2258C15.9477 50.4862 16.5063 50.8382 17.1911 51.2102C18.0721 51.6887 19.1207 52.1782 20.1213 52.5234C22.1841 53.2351 24.6686 53.4089 25.8754 53.4846C25.8981 53.4568 25.9228 53.4268 25.9495 53.395C26.101 53.2141 26.3174 52.9698 26.5765 52.7173C27.0705 52.2358 27.8108 51.6324 28.6012 51.4991C28.9564 51.4391 29.565 51.4526 30.246 51.4677L30.3379 51.4697C31.0365 51.4852 31.8692 51.5037 32.7664 51.4777C34.6432 51.4231 36.7327 51.1737 38.3744 50.3414C40.1104 49.4613 41.4478 48.5696 42.5169 47.4587C43.5828 46.3513 44.403 45.0039 45.0726 43.1853C45.3275 42.493 45.5286 41.7905 45.6924 41.1863C45.728 41.0548 45.7625 40.9256 45.7957 40.801C45.9096 40.3736 46.0092 40 46.0941 39.7709L46.1682 39.5708L46.3639 39.4859C46.721 39.331 47.3456 38.8313 47.9604 38.0958C48.5657 37.3717 49.1019 36.4892 49.334 35.6275C49.6033 34.6278 49.5276 33.5055 49.2335 32.5998C49.087 32.1486 48.8923 31.7699 48.677 31.4949C48.4588 31.2161 48.2455 31.0753 48.0672 31.0302C47.7635 30.9533 47.6441 30.6891 47.602 30.576C47.5495 30.4352 47.522 30.2709 47.5047 30.1129C47.4695 29.7904 47.4642 29.355 47.4676 28.8584C47.4694 28.5977 47.4736 28.3157 47.4782 28.0155C47.4913 27.1488 47.5067 26.1299 47.4716 25.0311C47.3765 22.0482 46.9092 18.6837 45.1569 16.5703C43.1222 14.1163 40.7809 12.6445 38.1902 11.9612C35.5927 11.2761 32.7118 11.3753 29.5937 12.1193C27.2353 12.682 25.2894 13.3742 23.6608 14.4445C22.0406 15.5093 20.7101 16.9645 19.609 19.0913C18.8815 20.4963 18.479 22.238 18.294 23.7942C18.1724 24.8173 18.1484 25.7281 18.1783 26.3824C18.6925 26.0751 19.2136 25.9126 19.7336 25.9213C20.5149 25.9344 21.1862 26.3316 21.7281 26.9716C21.8972 27.1713 22.0589 27.3638 22.2125 27.5465C22.4772 27.8614 22.7174 28.1472 22.9281 28.3905C23.038 27.2287 23.2582 25.6939 24.0847 24.2369C24.4038 23.6745 24.983 22.9862 25.4559 22.4613C25.6972 22.1935 25.9198 21.9585 26.082 21.7905C26.1631 21.7064 26.2294 21.6389 26.2756 21.5921L26.3293 21.5381L26.3436 21.5238L26.349 21.5184ZM29.6202 49.7342L29.2308 49.4207L28.6097 50.1923L29.5998 50.2338L29.6202 49.7342ZM48.5433 30.2366C48.5432 30.2368 48.5417 30.2339 48.5391 30.2271C48.5421 30.2329 48.5434 30.2364 48.5433 30.2366Z" fill="#B20237"/>
</svg>
