<svg width="30" height="30" viewBox="0 0 30 30" fill="none" xmlns="http://www.w3.org/2000/svg">
<circle cx="15" cy="15" r="15" fill="#1E3685"/>
<path d="M7.23 10.9C8.15 10.9 8.96667 11.09 9.68 11.47C10.4 11.8433 10.96 12.36 11.36 13.02C11.76 13.68 11.96 14.4267 11.96 15.26C11.96 15.8467 11.8733 16.3533 11.7 16.78C11.5333 17.2 11.2967 17.52 10.99 17.74C10.6833 17.96 10.3233 18.07 9.91 18.07C9.57 18.07 9.28333 17.9967 9.05 17.85C8.81667 17.7033 8.64667 17.4867 8.54 17.2C8.18 17.78 7.61 18.07 6.83 18.07C6.40333 18.07 6.01333 17.9633 5.66 17.75C5.30667 17.5367 5.02667 17.24 4.82 16.86C4.62 16.4733 4.52 16.0333 4.52 15.54C4.52 15.0533 4.62 14.62 4.82 14.24C5.02667 13.8533 5.30333 13.5533 5.65 13.34C6.00333 13.1267 6.39667 13.02 6.83 13.02C7.49 13.02 8.00333 13.24 8.37 13.68V13.09H9.73V16.33C9.73 16.7567 9.89 16.97 10.21 16.97C10.4433 16.97 10.6233 16.83 10.75 16.55C10.8833 16.27 10.95 15.8467 10.95 15.28C10.95 14.6067 10.7933 14.0133 10.48 13.5C10.1733 12.98 9.73667 12.5767 9.17 12.29C8.61 11.9967 7.96333 11.85 7.23 11.85C6.49667 11.85 5.84667 12.0067 5.28 12.32C4.72 12.6267 4.28333 13.0533 3.97 13.6C3.66333 14.1467 3.51 14.7667 3.51 15.46C3.51 16.1667 3.66333 16.7967 3.97 17.35C4.27667 17.8967 4.70667 18.3233 5.26 18.63C5.82 18.9433 6.46333 19.1 7.19 19.1C7.91 19.1 8.56667 18.9533 9.16 18.66L9.48 19.58C9.18 19.7333 8.82333 19.85 8.41 19.93C8.00333 20.0167 7.59667 20.06 7.19 20.06C6.24333 20.06 5.40667 19.86 4.68 19.46C3.95333 19.0667 3.39 18.52 2.99 17.82C2.59 17.12 2.39 16.3333 2.39 15.46C2.39 14.5933 2.59 13.8133 2.99 13.12C3.39667 12.4267 3.96667 11.8833 4.7 11.49C5.43333 11.0967 6.27667 10.9 7.23 10.9ZM7.14 16.92C7.50667 16.92 7.80667 16.8 8.04 16.56C8.27333 16.3133 8.39 15.9733 8.39 15.54C8.39 15.1133 8.27333 14.78 8.04 14.54C7.80667 14.3 7.50667 14.18 7.14 14.18C6.76667 14.18 6.46667 14.3033 6.24 14.55C6.01333 14.79 5.9 15.12 5.9 15.54C5.9 15.9667 6.01333 16.3033 6.24 16.55C6.46667 16.7967 6.76667 16.92 7.14 16.92ZM17.6939 16.5H14.4439L13.8239 18H12.1639L15.2839 11H16.8839L20.0139 18H18.3139L17.6939 16.5ZM17.1839 15.27L16.0739 12.59L14.9639 15.27H17.1839ZM20.7402 11H23.9202C24.6802 11 25.3502 11.1467 25.9302 11.44C26.5168 11.7267 26.9702 12.1333 27.2902 12.66C27.6168 13.1867 27.7802 13.8 27.7802 14.5C27.7802 15.2 27.6168 15.8133 27.2902 16.34C26.9702 16.8667 26.5168 17.2767 25.9302 17.57C25.3502 17.8567 24.6802 18 23.9202 18H20.7402V11ZM23.8402 16.67C24.5402 16.67 25.0968 16.4767 25.5102 16.09C25.9302 15.6967 26.1402 15.1667 26.1402 14.5C26.1402 13.8333 25.9302 13.3067 25.5102 12.92C25.0968 12.5267 24.5402 12.33 23.8402 12.33H22.3602V16.67H23.8402Z" fill="white"/>
</svg>
