<svg width="55" height="55" viewBox="0 0 55 55" fill="none" xmlns="http://www.w3.org/2000/svg">
<circle cx="27.5" cy="27.5" r="27.5" fill="#0263B2"/>
<path fill-rule="evenodd" clip-rule="evenodd" d="M38.1225 34.0172C39.1529 32.7268 39.93 31.2412 40.4064 29.6415C41.0083 27.6204 41.1116 25.4792 40.7071 23.4078C40.3026 21.3363 39.4028 19.3984 38.0874 17.7658C36.7721 16.1331 35.0818 14.8561 33.1662 14.0479C31.2506 13.2396 29.1689 12.9251 27.1055 13.1321C25.0421 13.3391 23.0606 14.0613 21.3367 15.2347C19.6127 16.4081 18.1994 17.9965 17.222 19.8591C16.4484 21.3335 15.9667 22.9437 15.7995 24.5984C15.7938 24.6551 15.8095 24.7039 15.8538 24.7504C15.9025 24.8016 15.9828 24.8431 16.0835 24.8431L27.761 24.8431C28.4112 24.8431 29.0348 25.1062 29.4945 25.5745L37.7518 33.9857C37.823 34.0582 37.9086 34.0868 37.9786 34.0856C38.0422 34.0846 38.0872 34.0614 38.1225 34.0172ZM38.9376 34.6925C38.4494 35.3039 37.556 35.2998 37.0089 34.7425L28.7516 26.3313C28.4889 26.0637 28.1326 25.9133 27.761 25.9133L16.0835 25.9133C15.3098 25.9133 14.6752 25.2728 14.7544 24.4888C14.9355 22.6962 15.4573 20.9519 16.2954 19.3546C17.3542 17.3367 18.8853 15.616 20.7529 14.3448C22.6206 13.0736 24.7671 12.2913 27.0025 12.067C29.2379 11.8427 31.4931 12.1835 33.5683 13.0591C35.6435 13.9347 37.4747 15.3181 38.8996 17.0868C40.3246 18.8555 41.2993 20.9549 41.7376 23.199C42.1758 25.4431 42.0639 27.7626 41.4119 29.9522C40.8958 31.6852 40.0538 33.2945 38.9376 34.6925Z" fill="white"/>
<path fill-rule="evenodd" clip-rule="evenodd" d="M13.0518 29.4238C13.1767 30.6592 13.477 31.872 13.9453 33.0237C14.5789 34.5819 15.5076 35.9977 16.6784 37.1903C17.8492 38.3829 19.2391 39.3289 20.7687 39.9743C21.8993 40.4514 23.0899 40.7573 24.3027 40.8845C24.3584 40.8903 24.4063 40.8743 24.452 40.8292C24.5023 40.7796 24.5429 40.6978 24.5429 40.5952L24.5429 29.5359C24.5429 29.3389 24.3861 29.1792 24.1927 29.1792L13.3358 29.1791C13.2351 29.1792 13.1548 29.2206 13.1061 29.2718C13.0618 29.3183 13.0461 29.3671 13.0518 29.4238ZM12.0067 29.5334C11.9275 28.7494 12.5621 28.1089 13.3358 28.1089H24.1927C24.9664 28.1089 25.5936 28.7478 25.5936 29.5359L25.5936 40.5952C25.5936 41.3833 24.9648 42.0298 24.1952 41.9491C22.8813 41.8113 21.5915 41.4799 20.3667 40.9631C18.7095 40.2639 17.2038 39.2391 15.9355 37.9471C14.6671 36.6551 13.661 35.1213 12.9746 33.4333C12.4673 32.1856 12.1419 30.8718 12.0067 29.5334Z" fill="white"/>
<path fill-rule="evenodd" clip-rule="evenodd" d="M29.4352 41.9025C30.8699 41.7803 32.2761 41.4084 33.5919 40.8005C34.9078 40.1926 36.1089 39.36 37.1443 38.3411L29.4352 31.464V41.9025ZM29.0847 42.9991C28.6983 43.0193 28.3845 42.6979 28.3845 42.3039V30.6773C28.3845 30.0642 29.0936 29.7366 29.5464 30.1406L38.133 37.8004C38.424 38.06 38.4546 38.5122 38.1851 38.795C36.9955 40.0433 35.5851 41.0549 34.0259 41.7752C32.4667 42.4955 30.7903 42.9099 29.0847 42.9991Z" fill="white"/>
<path fill-rule="evenodd" clip-rule="evenodd" d="M18.8853 32.3349C19.0787 32.3349 19.2355 32.1751 19.2355 31.9781C19.2355 31.7811 19.0787 31.6214 18.8853 31.6214C18.6919 31.6214 18.5351 31.7811 18.5351 31.9781C18.5351 32.1751 18.6919 32.3349 18.8853 32.3349ZM18.8853 33.4051C19.659 33.4051 20.2862 32.7662 20.2862 31.9781C20.2862 31.19 19.659 30.5511 18.8853 30.5511C18.1116 30.5511 17.4844 31.19 17.4844 31.9781C17.4844 32.7662 18.1116 33.4051 18.8853 33.4051Z" fill="white"/>
<path fill-rule="evenodd" clip-rule="evenodd" d="M21.6871 35.9024C21.8805 35.9024 22.0373 35.7427 22.0373 35.5456C22.0373 35.3486 21.8805 35.1889 21.6871 35.1889C21.4937 35.1889 21.3369 35.3486 21.3369 35.5456C21.3369 35.7427 21.4937 35.9024 21.6871 35.9024ZM21.6871 36.9726C22.4608 36.9726 23.088 36.3337 23.088 35.5456C23.088 34.7575 22.4608 34.1186 21.6871 34.1186C20.9134 34.1186 20.2862 34.7575 20.2862 35.5456C20.2862 36.3337 20.9134 36.9726 21.6871 36.9726Z" fill="white"/>
<path fill-rule="evenodd" clip-rule="evenodd" d="M22.4088 31.5997C22.6139 31.8087 22.6139 32.1475 22.4088 32.3565L18.9065 35.924C18.7014 36.133 18.3688 36.133 18.1636 35.924C17.9584 35.715 17.9584 35.3762 18.1636 35.1672L21.6658 31.5997C21.871 31.3907 22.2036 31.3907 22.4088 31.5997Z" fill="white"/>
<path fill-rule="evenodd" clip-rule="evenodd" d="M21.1617 20.9188C21.1617 20.6233 21.3969 20.3837 21.6871 20.3837H26.24C26.5301 20.3837 26.7653 20.6233 26.7653 20.9188C26.7653 21.2143 26.5301 21.4539 26.24 21.4539H21.6871C21.3969 21.4539 21.1617 21.2143 21.1617 20.9188ZM21.1617 22.3458C21.1617 22.0503 21.3969 21.8107 21.6871 21.8107H26.9404C27.2306 21.8107 27.4658 22.0503 27.4658 22.3458C27.4658 22.6414 27.2306 22.8809 26.9404 22.8809H21.6871C21.3969 22.8809 21.1617 22.6414 21.1617 22.3458Z" fill="white"/>
<path d="M22.1774 18.9567C22.1774 19.2522 21.9422 19.4918 21.6521 19.4918C21.3619 19.4918 21.1267 19.2522 21.1267 18.9567C21.1267 18.6611 21.3619 18.4215 21.6521 18.4215C21.9422 18.4215 22.1774 18.6611 22.1774 18.9567Z" fill="white"/>
<path d="M23.4382 18.9567C23.4382 19.2522 23.203 19.4918 22.9129 19.4918C22.6227 19.4918 22.3875 19.2522 22.3875 18.9567C22.3875 18.6611 22.6227 18.4215 22.9129 18.4215C23.203 18.4215 23.4382 18.6611 23.4382 18.9567Z" fill="white"/>
</svg>
