<svg width="55" height="55" viewBox="0 0 55 55" fill="none" xmlns="http://www.w3.org/2000/svg">
<circle cx="27.5" cy="27.5" r="27.5" fill="#0263B2"/>
<path d="M37.68 37C37.68 37.3313 37.4113 37.6 37.08 37.6C36.7486 37.6 36.48 37.3313 36.48 37C36.48 36.6686 36.7486 36.4 37.08 36.4C37.4113 36.4 37.68 36.6686 37.68 37Z" fill="white"/>
<path fill-rule="evenodd" clip-rule="evenodd" d="M40.3757 16.4242C39.9473 15.9958 39.2527 15.9958 38.8242 16.4242L38.2125 17.036L37.3623 17.8861L36.2115 19.037L35.3586 19.8899L27.1879 28.0606C26.7527 28.4957 26.0472 28.4957 25.6121 28.0606L23.1757 25.6242C22.7473 25.1958 22.0527 25.1958 21.6243 25.6242C21.1958 26.0527 21.1958 26.7473 21.6243 27.1757L25.3473 30.8988C25.9287 31.4801 26.8713 31.4801 27.4526 30.8988L36.5822 21.7692L37.4688 20.8826L38.6881 19.6633L39.5567 18.7947L40.3757 17.9757C40.8041 17.5473 40.8041 16.8527 40.3757 16.4242ZM37.9757 15.5757C38.8728 14.6787 40.3272 14.6787 41.2242 15.5757C42.1213 16.4728 42.1213 17.9272 41.2242 18.8242L28.3012 31.7473C27.2512 32.7973 25.5488 32.7973 24.4988 31.7473L20.7757 28.0242C19.8787 27.1272 19.8787 25.6728 20.7757 24.7757C21.6728 23.8786 23.1272 23.8786 24.0243 24.7757L26.4 27.1514L37.9757 15.5757Z" fill="white"/>
<path fill-rule="evenodd" clip-rule="evenodd" d="M20.8339 37.4416C23.5102 38.9421 26.6536 39.379 29.6377 38.6653C32.6218 37.9516 35.2273 36.1398 36.9352 33.5908C38.6431 31.0419 39.3278 27.943 38.8529 24.9118C38.6295 23.4855 38.1571 22.1235 37.4688 20.8826L36.5822 21.7692C37.1148 22.8049 37.4841 23.9272 37.6674 25.0975C38.0956 27.8306 37.4782 30.6246 35.9383 32.9229C34.3984 35.2211 32.0491 36.8548 29.3586 37.4982C26.668 38.1417 23.8338 37.7478 21.4207 36.3949C19.0076 35.0421 17.1929 32.8297 16.3382 30.1986C15.5454 27.7582 15.6325 25.1239 16.5727 22.7499C16.6947 22.4418 16.5648 22.0859 16.2638 21.9473C15.9628 21.8086 15.605 21.9398 15.4813 22.2472C14.4158 24.896 14.3108 27.8419 15.1969 30.5694C16.1449 33.4875 18.1576 35.9412 20.8339 37.4416ZM35.3586 19.8899C34.8507 19.2607 34.2713 18.6851 33.628 18.1758C31.4591 16.4585 28.7228 15.6216 25.9643 15.8318C24.8708 15.9151 23.8057 16.1605 22.801 16.5526C22.4923 16.6731 22.1371 16.5413 22 16.2397C21.8629 15.938 21.9958 15.5808 22.3038 15.4587C23.436 15.0098 24.6383 14.7293 25.8732 14.6352C28.9325 14.4022 31.9674 15.3304 34.3729 17.2349C35.0525 17.773 35.6677 18.3778 36.2115 19.037L35.3586 19.8899Z" fill="white"/>
<path fill-rule="evenodd" clip-rule="evenodd" d="M36.7078 15.5651C33.832 13.1236 30.1418 11.8554 26.3727 12.0131C22.6036 12.1709 19.0324 13.743 16.3706 16.4162C13.7089 19.0895 12.1521 22.6675 12.0106 26.4372C11.869 30.2069 13.1531 33.8916 15.6069 36.7569C18.0607 39.6222 21.5041 41.4577 25.2507 41.8976C28.7983 42.3142 32.3713 41.4505 35.3308 39.4738C35.6064 39.2898 35.665 38.9134 35.4701 38.6454C35.2752 38.3774 34.9006 38.3194 34.6244 38.5025C31.9094 40.3022 28.6385 41.0872 25.3907 40.7058C21.9437 40.3011 18.7759 38.6124 16.5184 35.9763C14.2609 33.3403 13.0795 29.9504 13.2097 26.4822C13.3399 23.0141 14.7722 19.7223 17.221 17.2629C19.6698 14.8036 22.9553 13.3572 26.4229 13.2121C29.8905 13.067 33.2854 14.2337 35.9312 16.4799C36.4446 16.9157 36.9225 17.386 37.3623 17.8861L38.2125 17.036C37.7484 16.5139 37.2461 16.0221 36.7078 15.5651ZM39.491 18.6949C39.5131 18.7281 39.535 18.7613 39.5567 18.7947L38.6881 19.6633C39.758 21.3677 40.4514 23.3003 40.6988 25.3317C41.0941 28.5779 40.3232 31.8522 38.5352 34.5749C38.3533 34.8518 38.4129 35.2262 38.6817 35.4199C38.9506 35.6137 39.3267 35.5534 39.5095 35.2771C41.4735 32.3091 42.3218 28.7325 41.89 25.1867C41.6049 22.8462 40.7753 20.6266 39.491 18.6949Z" fill="white"/>
</svg>
