<svg width="55" height="55" viewBox="0 0 55 55" fill="none" xmlns="http://www.w3.org/2000/svg">
<circle cx="27.5" cy="27.5" r="27.5" fill="#0263B2"/>
<path fill-rule="evenodd" clip-rule="evenodd" d="M18.075 12.5254C18.075 12.8156 18.3184 13.0508 18.6188 13.0508H19.525C20.1256 13.0508 20.6125 13.5213 20.6125 14.1017V18.3051C20.6125 18.8855 20.1256 19.3559 19.525 19.3559H15.175C14.5744 19.3559 14.0875 18.8855 14.0875 18.3051V14.1017C14.0875 13.5213 14.5744 13.0508 15.175 13.0508H16.0813C16.3816 13.0508 16.625 12.8156 16.625 12.5254C16.625 12.2352 16.3816 12 16.0813 12H15.175C13.9738 12 13 12.941 13 14.1017V18.3051C13 19.4658 13.9738 20.4068 15.175 20.4068H19.525C20.7262 20.4068 21.7 19.4658 21.7 18.3051V14.1017C21.7 12.941 20.7262 12 19.525 12H18.6188C18.3184 12 18.075 12.2352 18.075 12.5254Z" fill="white"/>
<path fill-rule="evenodd" clip-rule="evenodd" d="M29.675 13.0508H25.325C24.7244 13.0508 24.2375 13.5213 24.2375 14.1017V18.3051C24.2375 18.8855 24.7244 19.3559 25.325 19.3559H29.675C30.2756 19.3559 30.7625 18.8855 30.7625 18.3051V14.1017C30.7625 13.5213 30.2756 13.0508 29.675 13.0508ZM25.325 12C24.1238 12 23.15 12.941 23.15 14.1017V18.3051C23.15 19.4658 24.1238 20.4068 25.325 20.4068H29.675C30.8762 20.4068 31.85 19.4658 31.85 18.3051V14.1017C31.85 12.941 30.8762 12 29.675 12H25.325Z" fill="white"/>
<path fill-rule="evenodd" clip-rule="evenodd" d="M35.475 13.0508H39.825C40.4256 13.0508 40.9125 13.5213 40.9125 14.1017V18.3051C40.9125 18.8855 40.4256 19.3559 39.825 19.3559H38.9188C38.6184 19.3559 38.375 19.5912 38.375 19.8814C38.375 20.1715 38.6184 20.4068 38.9188 20.4068H39.825C41.0262 20.4068 42 19.4658 42 18.3051V14.1017C42 12.941 41.0262 12 39.825 12H35.475C34.2738 12 33.3 12.941 33.3 14.1017V18.3051C33.3 19.4658 34.2738 20.4068 35.475 20.4068H36.3813C36.6816 20.4068 36.925 20.1715 36.925 19.8814C36.925 19.5912 36.6816 19.3559 36.3813 19.3559H35.475C34.8744 19.3559 34.3875 18.8855 34.3875 18.3051V14.1017C34.3875 13.5213 34.8744 13.0508 35.475 13.0508Z" fill="white"/>
<path fill-rule="evenodd" clip-rule="evenodd" d="M19.547 14.781C19.7593 14.9862 19.7593 15.3189 19.547 15.5241L16.9875 17.9973L15.5155 16.5749C15.3032 16.3697 15.3032 16.037 15.5155 15.8319C15.7279 15.6267 16.0721 15.6267 16.2845 15.8319L16.9875 16.5112L18.778 14.781C18.9904 14.5758 19.3346 14.5758 19.547 14.781Z" fill="white"/>
<path fill-rule="evenodd" clip-rule="evenodd" d="M22.9688 23.0339C22.9688 22.0666 23.7802 21.2825 24.7813 21.2825C25.7823 21.2825 26.5938 22.0666 26.5938 23.0339V25.4859H27.1375C28.0501 25.4859 28.8195 26.0784 29.0562 26.887H29.675C30.5876 26.887 31.357 27.4795 31.5937 28.2881H32.2125C33.3136 28.2881 34.2063 29.1507 34.2063 30.2147V37.2531L33.8438 40.0553V43H22.6063V40.1977L20.4313 37.3955V35.1186C20.4313 34.8285 20.6747 34.5932 20.975 34.5932C21.2753 34.5932 21.5188 34.8285 21.5188 35.1186V37.0452L23.6938 39.8475V41.9492H32.7563V39.9899L33.1188 37.1876V30.2147C33.1188 29.7311 32.713 29.339 32.2125 29.339H31.6688V32.4915C31.6688 32.7817 31.4253 33.0169 31.125 33.0169C30.8247 33.0169 30.5813 32.7817 30.5813 32.4915V28.8136C30.5813 28.3299 30.1755 27.9379 29.675 27.9379H29.1313V32.4915C29.1313 32.7817 28.8878 33.0169 28.5875 33.0169C28.2872 33.0169 28.0438 32.7817 28.0438 32.4915V27.4124C28.0438 26.9288 27.638 26.5367 27.1375 26.5367H26.5938V32.4915C26.5938 32.7817 26.3503 33.0169 26.05 33.0169C25.7497 33.0169 25.5063 32.7817 25.5063 32.4915V23.0339C25.5063 22.647 25.1817 22.3333 24.7813 22.3333C24.3808 22.3333 24.0563 22.647 24.0563 23.0339V33.7175C24.0563 34.0077 23.8128 34.2429 23.5125 34.2429C23.2122 34.2429 22.9688 34.0077 22.9688 33.7175V30.0395H22.425C21.9245 30.0395 21.5188 30.4316 21.5188 30.9153V33.0169C21.5188 33.3071 21.2753 33.5424 20.975 33.5424C20.6747 33.5424 20.4313 33.3071 20.4313 33.0169V30.9153C20.4313 29.8512 21.3239 28.9887 22.425 28.9887H22.9688V23.0339Z" fill="white"/>
</svg>
